<?xml version="1.0" encoding="iso-8859-1"?>
<!-- Generator: Adobe Illustrator 16.0.0, SVG Export Plug-In . SVG Version: 6.00 Build 0)  -->
<!DOCTYPE svg PUBLIC "-//W3C//DTD SVG 1.1//EN" "http://www.w3.org/Graphics/SVG/1.1/DTD/svg11.dtd">
<svg xmlns="http://www.w3.org/2000/svg" xmlns:xlink="http://www.w3.org/1999/xlink" version="1.1" id="Capa_1" x="0px" y="0px" width="512px" height="512px" viewBox="0 0 21 21" style="enable-background:new 0 0 21 21;" xml:space="preserve">
<g>
	<g>
		<path d="M5.882,5.967C7.791,5.705,9.545,8.1,10.747,7.476c0.171-0.088,0.292-0.146,0.353-0.19c0.031,0,0.056,0.003,0.088,0.002    c1.401,1.235,3.5-2.642,5.345-2.101c0.912,0.267,0.496,1.17-0.166,1.91c1.638-1.264,1.367-3.302,0.26-3.524    c-1.993-0.398-3.283,3.875-4.814,3.458c0.47-0.301,1.003-0.97,1.421-1.845c0.672-1.405,0.791-2.805,0.268-3.129    c-0.458-0.286-1.258,0.353-1.901,1.459c-0.042-0.142-0.078-0.282-0.13-0.423c-0.698-1.891-2.063-3.04-3.05-2.567    C7.435,0.998,7.2,2.913,7.898,4.804c0.354,0.96,0.882,1.727,1.445,2.189C8.039,6.386,6.814,3.748,5.41,4    C3.957,4.261,4.088,5.421,3.473,5.313L4.3,7.581C5.67,7.607,4.513,6.156,5.882,5.967z M11.766,4.196    c0.365-0.513,0.768-0.782,1.015-0.628c0.332,0.206,0.257,1.096-0.17,1.987c-0.327,0.687-0.767,1.169-1.104,1.263    C11.865,6.21,11.958,5.248,11.766,4.196z M11.098,6.604c-0.133-0.323-0.052-0.941,0.222-1.593    C11.418,5.663,11.336,6.245,11.098,6.604z M8.84,5.276C8.397,4.075,8.546,2.859,9.173,2.56c0.626-0.3,1.494,0.429,1.937,1.63    c0.026,0.069,0.043,0.138,0.064,0.207c-0.411,1.01-0.527,1.957-0.316,2.452c-0.027,0.019-0.05,0.044-0.081,0.058    c-0.074,0.036-0.152,0.055-0.231,0.062c-0.004,0.001-0.009,0.002-0.014,0.003C9.94,7.018,9.228,6.327,8.84,5.276z" fill="#ff4081"/>
		<polygon points="0,7.581 0,11.581 1.27,11.581 1.27,20.581 19.73,20.581 19.73,11.581 21,11.581 21,7.581   " fill="#ff4081"/>
	</g>
</g>
<g>
</g>
<g>
</g>
<g>
</g>
<g>
</g>
<g>
</g>
<g>
</g>
<g>
</g>
<g>
</g>
<g>
</g>
<g>
</g>
<g>
</g>
<g>
</g>
<g>
</g>
<g>
</g>
<g>
</g>
</svg>
